Coordinates
version=1
nRows=24
nColumns=24
inDegrees=yes

Units are S.I. units (second, meters, Newtons, ...)
Angles are in degrees.

endheader
time	pelvis_tilt	pelvis_list	pelvis_rotation	pelvis_tx	pelvis_ty	pelvis_tz	hip_flexion_r	hip_adduction_r	hip_rotation_r	knee_angle_r	ankle_angle_r	subtalar_angle_r	mtp_angle_r	hip_flexion_l	hip_adduction_l	hip_rotation_l	knee_angle_l	ankle_angle_l	subtalar_angle_l	mtp_angle_l	lumbar_extension	lumbar_bending	lumbar_rotation
      2.58000000	     -3.23434275	      4.01327739	      8.31314719	     -1.63622655	      0.91413469	      0.18355288	     31.67265849	     -4.01227569	     -8.75124682	    -13.16859462	     11.21435604	     -0.74267710	      0.00000000	    -14.43307498	      7.98769459	      6.03953228	    -13.21831593	     24.63184825	     -1.87633531	      0.00000000	     -9.99836460	     -3.56935169	    -18.87093109
      2.58500000	     -3.07144515	      3.80408679	      8.39138724	     -1.62841814	      0.91325173	      0.18366159	     31.67782859	     -3.68375025	     -8.29717092	    -14.03812165	     10.48478168	     -1.62285155	      0.00000000	    -14.64488716	      7.60542323	      5.71710026	    -14.03605984	     24.65169887	     -1.30923840	      0.00000000	    -10.10078849	     -3.29792611	    -18.77103609
      2.59000000	     -3.12253226	      3.54619762	      8.39400292	     -1.62052610	      0.91210935	      0.18392684	     31.94448847	     -3.26843690	     -7.59062777	    -14.99649179	      9.58276794	     -2.66259686	      0.00000000	    -14.57800931	      7.21730556	      5.33675048	    -14.93837629	     24.64891929	     -0.71349999	      0.00000000	     -9.91516318	     -3.02391363	    -18.57339085
      2.59500000	     -3.12722139	      3.32192784	      8.31432913	     -1.61273669	      0.91109188	      0.18438576	     32.20051993	     -2.81656932	     -6.65797467	    -16.04952743	      8.60338020	     -3.75905811	      0.00000000	    -14.48138591	      6.85312212	      4.72803418	    -15.96374527	     24.59795616	      0.03629516	      0.00000000	     -9.81831490	     -2.80030062	    -18.28867872
      2.60000000	     -3.14862807	      3.00730176	      8.23894683	     -1.60485952	      0.91016028	      0.18483894	     32.49024277	     -2.28184807	     -5.79861938	    -17.17041808	      7.61906656	     -4.77045804	      0.00000000	    -14.31128767	      6.39077425	      4.15238947	    -17.07200330	     24.47610919	      0.75613232	      0.00000000	     -9.67474614	     -2.46553581	    -18.00222495
      2.60500000	     -3.16314470	      2.69035651	      8.11116433	     -1.59700908	      0.90932269	      0.18540295	     32.81114650	     -1.70811626	     -4.91624929	    -18.37889000	      6.63916089	     -5.75708487	      0.00000000	    -14.09035003	      5.92146492	      3.52368168	    -18.27387108	     24.26372253	      1.52630575	      0.00000000	     -9.54860950	     -2.13991332	    -17.67448964
      2.61000000	     -3.17617352	      2.33518219	      7.97923707	     -1.58913572	      0.90857268	      0.18599197	     33.14164617	     -1.08702321	     -4.05378577	    -19.63656187	      5.72523018	     -6.69891356	      0.00000000	    -13.79984332	      5.39803160	      2.87114656	    -19.59168360	     23.97115987	      2.32072312	      0.00000000	     -9.41972521	     -1.76563731	    -17.34427946
      2.61500000	     -3.18020241	      1.96534223	      7.83522927	     -1.58124853	      0.90791094	      0.18662553	     33.46785203	     -0.43565622	     -3.21596624	    -20.92786703	      4.89598215	     -7.59923608	      0.00000000	    -13.45182970	      4.84222400	      2.20163222	    -21.02127341	     23.57529867	      3.14455141	      0.00000000	     -9.30333485	     -1.37573544	    -17.00728498
      2.62000000	     -3.17501413	      1.57917094	      7.68476793	     -1.57332766	      0.90733162	      0.18728029	     33.77859034	      0.23986534	     -2.44545940	    -22.22907044	      4.15561548	     -8.46176768	      0.00000000	    -13.05386285	      4.25291956	      1.54847670	    -22.55028022	     23.06666727	      3.97858429	      0.00000000	     -9.19341593	     -0.96506622	    -16.67648935
      2.62500000	     -3.15857463	      1.18679330	      7.52959342	     -1.56537676	      0.90682709	      0.18795715	     34.05833228	      0.92686889	     -1.75405936	    -23.51298244	      3.51777515	     -9.28821170	      0.00000000	    -12.60862533	      3.63936597	      0.91950494	    -24.17747576	     22.43603440	      4.81780343	      0.00000000	     -9.09561307	     -0.54682518	    -16.35947677
      2.63000000	     -3.13154165	      0.78800029	      7.37785355	     -1.55739565	      0.90638748	      0.18865328	     34.29129470	      1.62029746	     -1.14088558	    -24.74837809	      2.99869560	    -10.07706530	      0.00000000	    -12.11670587	      2.99964371	      0.32931790	    -25.89684602	     21.68111458	      5.64985537	      0.00000000	     -9.00785137	     -0.12223161	    -16.06135446
      2.63500000	     -3.09402291	      0.38735666	      7.22442347	     -1.54940366	      0.90600606	      0.18935280	     34.47042045	      2.31333282	     -0.61490700	    -25.91631797	      2.60347711	    -10.82874384	      0.00000000	    -11.58116991	      2.34502618	     -0.21089262	    -27.69813934	     20.80193425	      6.45389100	      0.00000000	     -8.93263295	      0.30860805	    -15.78844706
      2.64000000	     -3.04930703	     -0.01260501	      7.07819313	     -1.54140545	      0.90568466	      0.19006011	     34.58726883	      2.99623288	     -0.18257918	    -26.99495421	      2.35026854	    -11.52416746	      0.00000000	    -10.99962492	      1.67715012	     -0.69071757	    -29.57241787	     19.79506114	      7.21762384	      0.00000000	     -8.86665621	      0.73722540	    -15.54159916
      2.64500000	     -3.00507536	     -0.42007425	      6.92495159	     -1.53344081	      0.90539969	      0.19076807	     34.64812846	      3.68293498	      0.18202760	    -27.97240747	      2.22772132	    -12.17592781	      0.00000000	    -10.36264528	      0.99872191	     -1.10805154	    -31.51542148	     18.69151589	      7.92882504	      0.00000000	     -8.80448029	      1.17851152	    -15.31145616
      2.65000000	     -2.96653004	     -0.83295275	      6.77516726	     -1.52554305	      0.90515143	      0.19151352	     34.65633555	      4.37016964	      0.49431500	    -28.84347896	      2.22932159	    -12.77441807	      0.00000000	     -9.66756210	      0.31437173	     -1.43392790	    -33.51166044	     17.51003435	      8.55933176	      0.00000000	     -8.75060151	      1.62176627	    -15.08382357
      2.65500000	     -2.93601831	     -1.24213550	      6.63058381	     -1.51767806	      0.90496669	      0.19226311	     34.60695322	      5.04036571	      0.72926379	    -29.60085540	      2.37022997	    -13.30290785	      0.00000000	     -8.91739762	     -0.36726804	     -1.70180600	    -35.54161563	     16.23076959	      9.11233873	      0.00000000	     -8.68761451	      2.04882950	    -14.87400408
      2.66000000	     -2.91359139	     -1.64333088	      6.47709191	     -1.50984012	      0.90485374	      0.19298988	     34.49608023	      5.68540808	      0.87387344	    -30.23660781	      2.68335929	    -13.71024632	      0.00000000	     -8.12272059	     -1.03013411	     -1.91871602	    -37.58177920	     14.85952569	      9.55304467	      0.00000000	     -8.61789670	      2.47721005	    -14.68021961
      2.66500000	     -2.91212504	     -2.05030365	      6.32530555	     -1.50211794	      0.90477206	      0.19375596	     34.35694920	      6.33097924	      0.99943400	    -30.77641750	      3.05864541	    -14.07818662	      0.00000000	     -7.25548380	     -1.68450600	     -2.05270980	    -39.64757701	     13.47171995	      9.87675022	      0.00000000	     -8.54032150	      2.89367476	    -14.47718578
      2.67000000	     -2.94701831	     -2.44130075	      6.16622202	     -1.49460795	      0.90471406	      0.19452345	     34.21151720	      6.95059532	      1.10915700	    -31.22031113	      3.46664749	    -14.40626468	      0.00000000	     -6.28805151	     -2.30049281	     -2.12143951	    -41.74971160	     12.09051386	     10.11058546	      0.00000000	     -8.46100688	      3.29949001	    -14.28295342
      2.67500000	     -2.97854552	     -2.83438245	      5.99248489	     -1.48705232	      0.90476753	      0.19525297	     33.99169270	      7.55710108	      1.15643561	    -31.55152283	      4.01495784	    -14.61240670	      0.00000000	     -5.31265775	     -2.89253048	     -2.15862843	    -43.80484396	     10.66154107	     10.14928881	      0.00000000	     -8.36962198	      3.70696861	    -14.04628732
      2.68000000	     -3.05244259	     -3.22154839	      5.81703975	     -1.47967914	      0.90483958	      0.19600994	     33.78344948	      8.14431066	      1.18727940	    -31.80893995	      4.56113471	    -14.77240867	      0.00000000	     -4.23506871	     -3.46013209	     -2.15362703	    -45.87723965	      9.28001465	     10.08490303	      0.00000000	     -8.25932467	      4.10186763	    -13.82042468
      2.68500000	     -3.17778966	     -3.59106726	      5.63943238	     -1.47243497	      0.90492997	      0.19676644	     33.59107805	      8.70230065	      1.23396409	    -31.99967774	      5.13388148	    -14.86145127	      0.00000000	     -3.05956806	     -3.98338270	     -2.11089742	    -47.93929530	      7.94420936	      9.87704731	      0.00000000	     -8.10619767	      4.46986961	    -13.64054981
      2.69000000	     -3.27223908	     -3.96044613	      5.43983572	     -1.46525844	      0.90516657	      0.19748298	     33.32656843	      9.24862050	      1.22679524	    -32.11557152	      5.72892888	    -14.85563248	      0.00000000	     -1.89969851	     -4.47858068	     -2.05527896	    -49.95000378	      6.67106412	      9.49257541	      0.00000000	     -8.00426449	      4.85230663	    -13.36220354
      2.69500000	     -3.39572196	     -4.31651879	      5.25005304	     -1.45814915	      0.90545087	      0.19817037	     33.04849647	      9.77067609	      1.24747019	    -32.16018146	      6.34619912	    -14.80993523	      0.00000000	     -0.68133259	     -4.93586501	     -1.96618487	    -51.92043673	      5.51184850	      8.95500854	      0.00000000	     -7.87279892	      5.21386913	    -13.10053231
